<svg width="224" height="200" viewBox="0 0 224 200" fill="none" xmlns="http://www.w3.org/2000/svg">
<g opacity="0.08">
<path opacity="0.08" d="M1.34448 124.608C1.34448 124.608 8.50334 163.187 44.8128 184.093C81.116 204.999 126.247 200.012 162.931 196.933C199.615 193.853 224.367 169.045 223.833 137.337C223.299 105.628 194.167 100.739 173.721 67.662C153.275 34.5917 152.846 22.7584 117.677 5.86426C82.5087 -11.0237 34.7217 9.9314 14.2819 51.1791C-6.15787 92.4267 1.34448 124.608 1.34448 124.608Z" fill="#184AFB"/>
<path opacity="0.7" d="M1.34448 124.608C1.34448 124.608 8.50335 163.187 44.8128 184.093C81.116 204.999 126.247 200.012 162.931 196.933C199.615 193.853 224.367 169.045 223.833 137.337C223.299 105.628 194.167 100.739 173.721 67.662C153.275 34.5917 152.846 22.7584 117.677 5.86426C82.5087 -11.0237 34.7217 9.9314 14.2819 51.1791C-6.15787 92.4267 1.34448 124.608 1.34448 124.608Z" fill="#184AFB"/>
</g>
</svg>
